<svg width="271" height="53" viewBox="0 0 271 53" fill="none" xmlns="http://www.w3.org/2000/svg">
<path d="M11.6963 28.3365C11.6963 30.6021 11.9723 32.6438 12.5296 34.4615C13.0817 36.2844 13.8838 37.8521 14.9254 39.1698C15.9775 40.4771 17.2588 41.4823 18.7588 42.1907C20.2692 42.899 22.0088 43.2532 23.9671 43.2532C25.8838 43.2532 27.6025 42.899 29.1338 42.1907C30.6598 41.4823 31.9463 40.4771 32.9879 39.1698C34.04 37.8521 34.8473 36.2844 35.4046 34.4615C35.9567 32.6438 36.2379 30.6021 36.2379 28.3365C36.2379 26.0605 35.9567 24.0032 35.4046 22.1698C34.8473 20.3261 34.04 18.748 32.9879 17.4407C31.9463 16.123 30.6598 15.1073 29.1338 14.399C27.6025 13.6907 25.8838 13.3365 23.9671 13.3365C22.0088 13.3365 20.2692 13.7063 18.7588 14.4407C17.2588 15.1646 15.9775 16.1855 14.9254 17.5032C13.8838 18.8105 13.0817 20.3886 12.5296 22.2323C11.9723 24.0813 11.6963 26.1178 11.6963 28.3365ZM46.9671 28.3365C46.9671 32.2844 46.3734 35.7532 45.1963 38.7532C44.014 41.7532 42.4046 44.2688 40.3629 46.2948C38.3213 48.3261 35.889 49.8521 33.0713 50.8782C30.2484 51.8886 27.2171 52.399 23.9671 52.399C20.8109 52.399 17.8317 51.8886 15.0296 50.8782C12.2379 49.8521 9.79002 48.3261 7.69627 46.2948C5.61294 44.2688 3.9671 41.7532 2.75877 38.7532C1.56085 35.7532 0.967102 32.2844 0.967102 28.3365C0.967102 24.3782 1.58169 20.899 2.82127 17.899C4.07127 14.899 5.74835 12.3782 7.86294 10.3365C9.97231 8.28442 12.415 6.74797 15.1963 5.73234C17.9723 4.7063 20.8942 4.19067 23.9671 4.19067C27.1181 4.19067 30.0921 4.7063 32.8838 5.73234C35.6859 6.74797 38.1338 8.28442 40.2171 10.3365C42.3109 12.3782 43.9567 14.899 45.1546 17.899C46.3629 20.899 46.9671 24.3782 46.9671 28.3365Z" fill="#F8F3ED"/>
<path d="M54.6256 7.66984L64.5631 6.06567V16.399H76.5006V24.6698H64.5631V37.0032C64.5631 39.0865 64.9225 40.7532 65.6464 42.0032C66.3808 43.2428 67.86 43.8573 70.0839 43.8573C71.1517 43.8573 72.2506 43.7636 73.3756 43.5657C74.511 43.3573 75.5527 43.0813 76.5006 42.7323L77.8964 50.4615C76.6881 50.9511 75.3444 51.3678 73.8756 51.7115C72.4173 52.0709 70.6256 52.2532 68.5006 52.2532C65.7767 52.2532 63.5267 51.8886 61.7506 51.1698C59.9694 50.4355 58.5475 49.4146 57.4798 48.1073C56.4225 46.7896 55.6777 45.2011 55.2506 43.3365C54.8339 41.4615 54.6256 39.3938 54.6256 37.1282V7.66984Z" fill="#F8F3ED"/>
<path d="M94.4918 51.4615H84.5543V16.399H94.4918V51.4615ZM95.4293 6.25321C95.4293 8.08655 94.8356 9.52405 93.6585 10.5657C92.4762 11.6074 91.0856 12.1282 89.4918 12.1282C87.8929 12.1282 86.5022 11.6074 85.3252 10.5657C84.1429 9.52405 83.5543 8.08655 83.5543 6.25321C83.5543 4.43551 84.1429 3.00321 85.3252 1.96155C86.5022 0.919881 87.8929 0.399048 89.4918 0.399048C91.0856 0.399048 92.4762 0.919881 93.6585 1.96155C94.8356 3.00321 95.4293 4.43551 95.4293 6.25321Z" fill="#F8F3ED"/>
<path d="M123.089 32.8574C123.089 29.6647 122.672 27.399 121.839 26.0657C121.016 24.7324 119.61 24.0657 117.61 24.0657C116.995 24.0657 116.36 24.1022 115.693 24.1699C115.026 24.2272 114.38 24.3053 113.755 24.399V51.4615H103.818V17.5865C104.662 17.3678 105.651 17.1386 106.776 16.899C107.912 16.649 109.115 16.4303 110.38 16.2324C111.641 16.024 112.943 15.8678 114.276 15.7532C115.61 15.6438 116.922 15.5865 118.214 15.5865C120.755 15.5865 122.808 15.9147 124.38 16.5657C125.964 17.2063 127.261 17.972 128.276 18.8574C129.703 17.847 131.339 17.0449 133.172 16.4615C135.016 15.8782 136.719 15.5865 138.276 15.5865C141.078 15.5865 143.38 15.9772 145.172 16.7532C146.974 17.5345 148.412 18.6386 149.485 20.0657C150.552 21.4824 151.282 23.1699 151.672 25.1282C152.073 27.0865 152.276 29.2688 152.276 31.6699V51.4615H142.36V32.8574C142.36 29.6647 141.943 27.399 141.11 26.0657C140.287 24.7324 138.88 24.0657 136.88 24.0657C136.349 24.0657 135.61 24.2011 134.651 24.4615C133.693 24.7272 132.901 25.0605 132.276 25.4615C132.594 26.4928 132.797 27.5761 132.88 28.7115C132.974 29.8365 133.026 31.0449 133.026 32.3365V51.4615H123.089V32.8574Z" fill="#F8F3ED"/>
<path d="M171.213 51.4615H161.276V16.399H171.213V51.4615ZM172.151 6.25321C172.151 8.08655 171.557 9.52405 170.38 10.5657C169.198 11.6074 167.807 12.1282 166.213 12.1282C164.614 12.1282 163.224 11.6074 162.047 10.5657C160.864 9.52405 160.276 8.08655 160.276 6.25321C160.276 4.43551 160.864 3.00321 162.047 1.96155C163.224 0.919881 164.614 0.399048 166.213 0.399048C167.807 0.399048 169.198 0.919881 170.38 1.96155C171.557 3.00321 172.151 4.43551 172.151 6.25321Z" fill="#F8F3ED"/>
<path d="M206.873 23.0657C206.066 23.9563 204.982 25.1595 203.623 26.6699C202.274 28.1699 200.821 29.8365 199.269 31.6699C197.711 33.4928 196.144 35.399 194.56 37.399C192.987 39.399 191.56 41.3313 190.269 43.1907H207.206V51.4615H178.206V45.5865C179.133 43.9928 180.253 42.274 181.56 40.4407C182.878 38.597 184.258 36.7428 185.706 34.8782C187.149 33.0032 188.581 31.1907 189.998 29.4407C191.425 27.6803 192.737 26.0865 193.935 24.6699H178.998V16.399H206.873V23.0657Z" fill="#F8F3ED"/>
<path d="M227.263 44.524C228.248 44.524 229.185 44.5032 230.076 44.4615C230.961 44.4199 231.67 44.3522 232.201 44.2532V36.7324C231.795 36.6386 231.191 36.5449 230.388 36.4615C229.597 36.3782 228.868 36.3365 228.201 36.3365C227.269 36.3365 226.388 36.3938 225.555 36.5032C224.732 36.6178 224.013 36.8261 223.388 37.1282C222.774 37.4355 222.29 37.8574 221.93 38.399C221.581 38.9303 221.409 39.597 221.409 40.399C221.409 41.9563 221.93 43.0345 222.972 43.6282C224.013 44.2272 225.441 44.524 227.263 44.524ZM226.472 15.4615C229.399 15.4615 231.847 15.7949 233.805 16.4615C235.763 17.1282 237.326 18.0865 238.493 19.3365C239.67 20.5761 240.503 22.0813 240.993 23.8574C241.493 25.6386 241.743 27.6178 241.743 29.7949V50.4615C240.31 50.7688 238.326 51.1282 235.784 51.5449C233.253 51.972 230.191 52.1907 226.597 52.1907C224.331 52.1907 222.274 51.9876 220.43 51.5865C218.581 51.2011 216.993 50.5449 215.659 49.6282C214.326 48.7115 213.305 47.524 212.597 46.0657C211.888 44.597 211.534 42.7949 211.534 40.6699C211.534 38.6178 211.941 36.8782 212.763 35.4615C213.581 34.0449 214.68 32.9147 216.055 32.0657C217.441 31.222 219.024 30.6074 220.805 30.2324C222.581 29.8574 224.42 29.6699 226.326 29.6699C227.618 29.6699 228.763 29.7272 229.763 29.8365C230.763 29.9511 231.576 30.0865 232.201 30.2532V29.3365C232.201 27.6438 231.685 26.2897 230.659 25.274C229.644 24.248 227.868 23.7324 225.326 23.7324C223.644 23.7324 221.977 23.8574 220.326 24.1074C218.685 24.347 217.269 24.6855 216.076 25.1282L214.805 17.1282C215.373 16.9511 216.086 16.7636 216.951 16.5657C217.826 16.3574 218.769 16.1803 219.784 16.024C220.81 15.873 221.894 15.7428 223.034 15.6282C224.17 15.5188 225.316 15.4615 226.472 15.4615Z" fill="#F8F3ED"/>
<path d="M239.034 27.399H250.159V15.0657H259.221V27.399H270.367V35.7323H259.221V48.0657H250.159V35.7323H239.034V27.399Z" fill="#F8F3ED"/>
</svg>
