<svg xmlns="http://www.w3.org/2000/svg" xmlns:xlink="http://www.w3.org/1999/xlink" width="500" zoomAndPan="magnify" viewBox="0 0 375 374.999991" height="500" preserveAspectRatio="xMidYMid meet" version="1.2"><defs/><g id="c88a6acd10"><rect x="0" width="375" y="0" height="374.999991" style="fill:#ffffff;fill-opacity:1;stroke:none;"/><rect x="0" width="375" y="0" height="374.999991" style="fill:#ffffff;fill-opacity:1;stroke:none;"/><g style="fill:#f8f3ed;fill-opacity:1;"><g transform="translate(85.164742, 205.874986)"><path style="stroke:none" d="M 10.546875 -17.34375 C 10.546875 -15.644531 10.753906 -14.113281 11.171875 -12.75 C 11.585938 -11.382812 12.1875 -10.207031 12.96875 -9.21875 C 13.757812 -8.238281 14.71875 -7.484375 15.84375 -6.953125 C 16.976562 -6.421875 18.28125 -6.15625 19.75 -6.15625 C 21.1875 -6.15625 22.476562 -6.421875 23.625 -6.953125 C 24.769531 -7.484375 25.734375 -8.238281 26.515625 -9.21875 C 27.304688 -10.207031 27.910156 -11.382812 28.328125 -12.75 C 28.742188 -14.113281 28.953125 -15.644531 28.953125 -17.34375 C 28.953125 -19.050781 28.742188 -20.59375 28.328125 -21.96875 C 27.910156 -23.351562 27.304688 -24.535156 26.515625 -25.515625 C 25.734375 -26.503906 24.769531 -27.265625 23.625 -27.796875 C 22.476562 -28.328125 21.1875 -28.59375 19.75 -28.59375 C 18.28125 -28.59375 16.976562 -28.316406 15.84375 -27.765625 C 14.71875 -27.222656 13.757812 -26.457031 12.96875 -25.46875 C 12.1875 -24.488281 11.585938 -23.304688 11.171875 -21.921875 C 10.753906 -20.535156 10.546875 -19.007812 10.546875 -17.34375 Z M 37 -17.34375 C 37 -14.382812 36.554688 -11.78125 35.671875 -9.53125 C 34.785156 -7.28125 33.578125 -5.394531 32.046875 -3.875 C 30.515625 -2.351562 28.691406 -1.207031 26.578125 -0.4375 C 24.460938 0.320312 22.1875 0.703125 19.75 0.703125 C 17.382812 0.703125 15.148438 0.320312 13.046875 -0.4375 C 10.953125 -1.207031 9.117188 -2.351562 7.546875 -3.875 C 5.984375 -5.394531 4.75 -7.28125 3.84375 -9.53125 C 2.945312 -11.78125 2.5 -14.382812 2.5 -17.34375 C 2.5 -20.3125 2.960938 -22.921875 3.890625 -25.171875 C 4.828125 -27.421875 6.085938 -29.3125 7.671875 -30.84375 C 9.253906 -32.382812 11.085938 -33.535156 13.171875 -34.296875 C 15.253906 -35.066406 17.445312 -35.453125 19.75 -35.453125 C 22.113281 -35.453125 24.34375 -35.066406 26.4375 -34.296875 C 28.539062 -33.535156 30.375 -32.382812 31.9375 -30.84375 C 33.507812 -29.3125 34.742188 -27.421875 35.640625 -25.171875 C 36.546875 -22.921875 37 -20.3125 37 -17.34375 Z M 37 -17.34375 "/></g></g><g style="fill:#f8f3ed;fill-opacity:1;"><g transform="translate(124.658632, 205.874986)"><path style="stroke:none" d="M 3.25 -32.84375 L 10.703125 -34.046875 L 10.703125 -26.296875 L 19.65625 -26.296875 L 19.65625 -20.09375 L 10.703125 -20.09375 L 10.703125 -10.84375 C 10.703125 -9.28125 10.972656 -8.03125 11.515625 -7.09375 C 12.066406 -6.164062 13.175781 -5.703125 14.84375 -5.703125 C 15.644531 -5.703125 16.46875 -5.773438 17.3125 -5.921875 C 18.164062 -6.078125 18.945312 -6.285156 19.65625 -6.546875 L 20.703125 -0.75 C 19.796875 -0.382812 18.789062 -0.0703125 17.6875 0.1875 C 16.59375 0.457031 15.25 0.59375 13.65625 0.59375 C 11.613281 0.59375 9.925781 0.320312 8.59375 -0.21875 C 7.257812 -0.769531 6.191406 -1.535156 5.390625 -2.515625 C 4.597656 -3.503906 4.039062 -4.695312 3.71875 -6.09375 C 3.40625 -7.5 3.25 -9.050781 3.25 -10.75 Z M 3.25 -32.84375 "/></g></g><g style="fill:#f8f3ed;fill-opacity:1;"><g transform="translate(146.855191, 205.874986)"><path style="stroke:none" d="M 10.953125 0 L 3.5 0 L 3.5 -26.296875 L 10.953125 -26.296875 Z M 11.65625 -33.90625 C 11.65625 -32.53125 11.210938 -31.453125 10.328125 -30.671875 C 9.441406 -29.890625 8.398438 -29.5 7.203125 -29.5 C 6.003906 -29.5 4.960938 -29.890625 4.078125 -30.671875 C 3.191406 -31.453125 2.75 -32.53125 2.75 -33.90625 C 2.75 -35.269531 3.191406 -36.34375 4.078125 -37.125 C 4.960938 -37.90625 6.003906 -38.296875 7.203125 -38.296875 C 8.398438 -38.296875 9.441406 -37.90625 10.328125 -37.125 C 11.210938 -36.34375 11.65625 -35.269531 11.65625 -33.90625 Z M 11.65625 -33.90625 "/></g></g><g style="fill:#f8f3ed;fill-opacity:1;"><g transform="translate(161.302955, 205.874986)"><path style="stroke:none" d="M 17.953125 -13.953125 C 17.953125 -16.347656 17.640625 -18.046875 17.015625 -19.046875 C 16.398438 -20.046875 15.34375 -20.546875 13.84375 -20.546875 C 13.382812 -20.546875 12.90625 -20.519531 12.40625 -20.46875 C 11.90625 -20.425781 11.421875 -20.367188 10.953125 -20.296875 L 10.953125 0 L 3.5 0 L 3.5 -25.40625 C 4.132812 -25.570312 4.875 -25.742188 5.71875 -25.921875 C 6.570312 -26.109375 7.472656 -26.273438 8.421875 -26.421875 C 9.367188 -26.578125 10.34375 -26.695312 11.34375 -26.78125 C 12.34375 -26.863281 13.328125 -26.90625 14.296875 -26.90625 C 16.203125 -26.90625 17.742188 -26.660156 18.921875 -26.171875 C 20.109375 -25.691406 21.082031 -25.117188 21.84375 -24.453125 C 22.914062 -25.210938 24.140625 -25.8125 25.515625 -26.25 C 26.898438 -26.6875 28.175781 -26.90625 29.34375 -26.90625 C 31.445312 -26.90625 33.171875 -26.613281 34.515625 -26.03125 C 35.867188 -25.445312 36.945312 -24.617188 37.75 -23.546875 C 38.550781 -22.484375 39.097656 -21.21875 39.390625 -19.75 C 39.691406 -18.28125 39.84375 -16.644531 39.84375 -14.84375 L 39.84375 0 L 32.40625 0 L 32.40625 -13.953125 C 32.40625 -16.347656 32.09375 -18.046875 31.46875 -19.046875 C 30.851562 -20.046875 29.796875 -20.546875 28.296875 -20.546875 C 27.898438 -20.546875 27.34375 -20.445312 26.625 -20.25 C 25.90625 -20.050781 25.3125 -19.800781 24.84375 -19.5 C 25.082031 -18.726562 25.234375 -17.914062 25.296875 -17.0625 C 25.367188 -16.21875 25.40625 -15.3125 25.40625 -14.34375 L 25.40625 0 L 17.953125 0 Z M 17.953125 -13.953125 "/></g></g><g style="fill:#f8f3ed;fill-opacity:1;"><g transform="translate(204.396286, 205.874986)"><path style="stroke:none" d="M 10.953125 0 L 3.5 0 L 3.5 -26.296875 L 10.953125 -26.296875 Z M 11.65625 -33.90625 C 11.65625 -32.53125 11.210938 -31.453125 10.328125 -30.671875 C 9.441406 -29.890625 8.398438 -29.5 7.203125 -29.5 C 6.003906 -29.5 4.960938 -29.890625 4.078125 -30.671875 C 3.191406 -31.453125 2.75 -32.53125 2.75 -33.90625 C 2.75 -35.269531 3.191406 -36.34375 4.078125 -37.125 C 4.960938 -37.90625 6.003906 -38.296875 7.203125 -38.296875 C 8.398438 -38.296875 9.441406 -37.90625 10.328125 -37.125 C 11.210938 -36.34375 11.65625 -35.269531 11.65625 -33.90625 Z M 11.65625 -33.90625 "/></g></g><g style="fill:#f8f3ed;fill-opacity:1;"><g transform="translate(218.844051, 205.874986)"><path style="stroke:none" d="M 23.25 -21.296875 C 22.644531 -20.628906 21.832031 -19.726562 20.8125 -18.59375 C 19.800781 -17.46875 18.710938 -16.21875 17.546875 -14.84375 C 16.378906 -13.476562 15.203125 -12.046875 14.015625 -10.546875 C 12.835938 -9.046875 11.765625 -7.597656 10.796875 -6.203125 L 23.5 -6.203125 L 23.5 0 L 1.75 0 L 1.75 -4.40625 C 2.445312 -5.601562 3.285156 -6.890625 4.265625 -8.265625 C 5.253906 -9.648438 6.289062 -11.039062 7.375 -12.4375 C 8.457031 -13.84375 9.53125 -15.203125 10.59375 -16.515625 C 11.664062 -17.835938 12.648438 -19.03125 13.546875 -20.09375 L 2.34375 -20.09375 L 2.34375 -26.296875 L 23.25 -26.296875 Z M 23.25 -21.296875 "/></g></g><g style="fill:#f8f3ed;fill-opacity:1;"><g transform="translate(243.840177, 205.874986)"><path style="stroke:none" d="M 13.546875 -5.203125 C 14.285156 -5.203125 14.988281 -5.21875 15.65625 -5.25 C 16.320312 -5.28125 16.851562 -5.332031 17.25 -5.40625 L 17.25 -11.046875 C 16.945312 -11.117188 16.492188 -11.1875 15.890625 -11.25 C 15.296875 -11.3125 14.75 -11.34375 14.25 -11.34375 C 13.550781 -11.34375 12.890625 -11.300781 12.265625 -11.21875 C 11.648438 -11.132812 11.109375 -10.976562 10.640625 -10.75 C 10.179688 -10.519531 9.816406 -10.203125 9.546875 -9.796875 C 9.285156 -9.398438 9.15625 -8.898438 9.15625 -8.296875 C 9.15625 -7.128906 9.546875 -6.320312 10.328125 -5.875 C 11.109375 -5.425781 12.179688 -5.203125 13.546875 -5.203125 Z M 12.953125 -27 C 15.148438 -27 16.984375 -26.75 18.453125 -26.25 C 19.921875 -25.75 21.09375 -25.03125 21.96875 -24.09375 C 22.851562 -23.164062 23.476562 -22.035156 23.84375 -20.703125 C 24.21875 -19.367188 24.40625 -17.882812 24.40625 -16.25 L 24.40625 -0.75 C 23.332031 -0.519531 21.84375 -0.25 19.9375 0.0625 C 18.039062 0.382812 15.742188 0.546875 13.046875 0.546875 C 11.347656 0.546875 9.804688 0.394531 8.421875 0.09375 C 7.035156 -0.195312 5.84375 -0.6875 4.84375 -1.375 C 3.84375 -2.0625 3.078125 -2.953125 2.546875 -4.046875 C 2.015625 -5.148438 1.75 -6.5 1.75 -8.09375 C 1.75 -9.632812 2.054688 -10.9375 2.671875 -12 C 3.285156 -13.0625 4.109375 -13.910156 5.140625 -14.546875 C 6.179688 -15.179688 7.367188 -15.640625 8.703125 -15.921875 C 10.035156 -16.203125 11.414062 -16.34375 12.84375 -16.34375 C 13.8125 -16.34375 14.671875 -16.300781 15.421875 -16.21875 C 16.171875 -16.132812 16.78125 -16.03125 17.25 -15.90625 L 17.25 -16.59375 C 17.25 -17.863281 16.863281 -18.878906 16.09375 -19.640625 C 15.332031 -20.410156 14 -20.796875 12.09375 -20.796875 C 10.832031 -20.796875 9.582031 -20.703125 8.34375 -20.515625 C 7.113281 -20.335938 6.050781 -20.082031 5.15625 -19.75 L 4.203125 -25.75 C 4.628906 -25.882812 5.164062 -26.023438 5.8125 -26.171875 C 6.46875 -26.328125 7.175781 -26.460938 7.9375 -26.578125 C 8.707031 -26.691406 9.519531 -26.789062 10.375 -26.875 C 11.226562 -26.957031 12.085938 -27 12.953125 -27 Z M 12.953125 -27 "/></g></g><g style="fill:#f8f3ed;fill-opacity:1;"><g transform="translate(263.761541, 205.874986)"><path style="stroke:none" d="M 2.453125 -18.046875 L 10.796875 -18.046875 L 10.796875 -27.296875 L 17.59375 -27.296875 L 17.59375 -18.046875 L 25.953125 -18.046875 L 25.953125 -11.796875 L 17.59375 -11.796875 L 17.59375 -2.546875 L 10.796875 -2.546875 L 10.796875 -11.796875 L 2.453125 -11.796875 Z M 2.453125 -18.046875 "/></g></g></g></svg>